<?xml version="1.0" encoding="UTF-8"?>
<svg width="96px" height="112px" viewBox="0 0 96 112" version="1.1" xmlns="http://www.w3.org/2000/svg" xmlns:xlink="http://www.w3.org/1999/xlink">
	<g stroke="none" stroke-width="1" fill-rule="evenodd" fill="#00DE75">
		<path d="M28.8687448,82.8719133 L95.804198,43.9019018 L75.047831,58.3493427 L75.047831,96.0620753 L47.4260004,112 L19.7072827,96.0620753 L19.7072827,88.1747911 L26.7304694,84.1190528 L26.7304694,91.9849318 L47.4485323,103.856979 L68.0235176,91.9849318 L68.0235176,63.2387605 L28.8687448,90.4933214 L28.8687448,82.8719133 Z M0,63.5615296 L16.780617,53.8536695 L16.780617,60.813767 L11.894579,63.6403912 L11.894579,87.8475155 L4.88491139,91.9032537 L4.88491139,67.6950029 L0,70.5216271 L0,63.5615296 Z M74.9267221,0 L74.9267221,51.1608847 L67.9181811,55.2200027 L67.9181811,12.1615817 L26.7152604,35.9169419 L26.7152604,43.8504165 L19.7067194,47.9208004 L19.7067194,31.8375452 L74.9267221,0 Z M54.2439217,38.9800382 L46.202294,43.6621626 L46.202294,48.6056569 L52.5934615,44.8856437 L52.5934615,51.8637666 L46.202294,55.5837799 L46.202294,60.9553798 L54.2439217,56.2732554 L54.2439217,63.2513783 L39.2196647,72.000507 L39.2196647,40.7476641 L54.2439217,32.0007886 L54.2439217,38.9800382 Z M28.162821,47.4080875 C30.9736729,45.7857922 33.1108216,45.4354215 34.6880532,46.3479626 C36.1413594,47.1861485 36.8781518,49.0055978 36.8781518,51.7556136 L36.8781518,65.477528 C36.8781518,70.7330888 34.2655804,75.0197788 29.3232128,77.8745678 L19.7077334,83.3171432 L19.7077334,52.1938587 L28.162821,47.4080875 Z M29.8662311,54.2442597 C29.8662311,53.9265602 29.794129,53.7417987 29.7242802,53.7001148 C29.6307729,53.6449117 29.4020743,53.6527978 29.2105534,53.7564445 L26.7196541,55.1218763 L26.7196541,72.3846755 L28.0918456,71.6332373 C29.4392519,70.7950514 29.8662311,70.0300941 29.8662311,68.3920265 L29.8662311,54.2442597 Z"></path>
	</g>
</svg>