<svg xmlns="http://www.w3.org/2000/svg" viewBox="0 0 182.5 265.36">
	<g>
		<polygon class="cls-1" points="88.34 34 58.9 51.01 58.9 150.33 88.34 133.32 88.34 34"/>
		<polygon class="cls-1" points="29.45 68.01 0 85.01 0 184.33 29.45 167.33 29.45 68.01"/>
		<polyline class="cls-1" points="117.79 116.41 117.79 17 147.24 0 147.24 99.43 117.79 116.41"/>
		<polygon class="cls-1" points="0 196.43 0 222.85 .37 223.06 29.45 239.85 29.45 208.67 182.5 91.07 0 196.43"/>
		<polygon class="cls-1" points="117.79 239.85 147.24 222.85 147.24 130.01 117.79 152.64 117.79 239.85"/>
		<polygon class="cls-1" points="58.9 256.86 73.62 265.36 88.34 256.86 88.34 175.27 58.9 197.89 58.9 256.86"/>
	</g>
</svg>
